<svg xmlns="http://www.w3.org/2000/svg" width="30" height="30" fill="none"><g clip-path="url(#C)"><g filter="url(#A)"><path fill-rule="evenodd" d="M15 30c8.284 0 15-6.716 15-15S23.284 0 15 0 0 6.716 0 15s6.716 15 15 15zm0-4.623A10.38 10.38 0 0 0 25.377 15 10.38 10.38 0 0 0 15 4.623 10.38 10.38 0 0 0 4.623 15 10.38 10.38 0 0 0 15 25.377z" fill="url(#B)"/></g></g><defs><filter id="A" x="0" y="0" width="30" height="30" filterUnits="userSpaceOnUse" color-interpolation-filters="sRGB"><feFlood flood-opacity="0"/><feBlend in="SourceGraphic" result="B"/><feColorMatrix in="SourceAlpha" values="0 0 0 0 0 0 0 0 0 0 0 0 0 0 0 0 0 0 127 0" result="C"/><feOffset/><feGaussianBlur stdDeviation="3.33"/><feComposite in2="C" operator="arithmetic" k2="-1" k3="1"/><feColorMatrix values="0 0 0 0 1 0 0 0 0 1 0 0 0 0 1 0 0 0 1 0"/><feBlend mode="overlay" in2="B"/></filter><linearGradient id="B" x1="30" y1="0" x2="0" y2="30" gradientUnits="userSpaceOnUse"><stop stop-color="#efa3e4"/><stop offset=".203" stop-color="#f082d8"/><stop offset=".398" stop-color="#036be4"/><stop offset=".599" stop-color="#036be4"/><stop offset=".818" stop-color="#65f9c2"/><stop offset="1" stop-color="#b5f5e2"/></linearGradient><clipPath id="C"><path fill="#fff" d="M0 0h30v30H0z"/></clipPath></defs></svg>