<svg xmlns="http://www.w3.org/2000/svg" width="33" height="32" fill="none"><path d="M22.996 27.236c-3.388 0-7.479-2.234-11.219-5.962-3.752-3.752-5.962-7.856-5.962-11.268 0-1.918.559-3.327 1.87-4.541.085-.073.158-.146.231-.206.777-.729 1.591-1.093 2.331-1.081.789.024 1.518.449 2.149 1.372l2.428 3.521c.692.996.801 2.173-.231 3.23l-.874.886c-.267.267-.316.559-.134.886.486.85 1.287 1.761 2.416 2.89 1.032 1.032 2.38 2.137 2.975 2.501.328.182.619.134.886-.134l.886-.874c1.056-1.032 2.234-.923 3.23-.231l3.521 2.428c.923.631 1.372 1.36 1.372 2.149 0 .741-.352 1.542-1.081 2.331-.061.073-.134.146-.206.231-1.226 1.323-2.647 1.87-4.59 1.87zm.012-1.469c1.372-.012 2.574-.474 3.485-1.457.049-.073.085-.109.146-.182.413-.449.619-.899.619-1.299 0-.388-.158-.716-.558-.971l-3.509-2.356c-.449-.303-.959-.352-1.457.146l-.983.996c-.729.729-1.663.704-2.392.206-.85-.583-2.246-1.773-3.351-2.89-1.093-1.105-2.222-2.416-2.805-3.266-.498-.729-.522-1.663.207-2.392l.996-.984c.498-.498.449-1.008.146-1.457l-2.355-3.509c-.255-.401-.583-.559-.971-.559s-.85.206-1.299.619c-.061.049-.109.097-.182.146-.984.911-1.445 2.101-1.457 3.448-.036 3.108 2.368 7.079 5.573 10.272 3.181 3.193 7.054 5.525 10.151 5.488z" fill="#767779"/></svg>