<svg width="32" height="33" viewBox="0 0 32 33" fill="none" xmlns="http://www.w3.org/2000/svg">
<path fill-rule="evenodd" clip-rule="evenodd" d="M12.3302 7.58088C12.8052 7.02203 13.5016 6.69995 14.235 6.69995H17.762C18.4954 6.69995 19.1918 7.02203 19.6668 7.58088L20.3484 8.38287C20.5193 8.58402 20.77 8.69995 21.034 8.69995H24.7499C26.4344 8.69995 27.7999 10.0655 27.7999 11.75V21.75C27.7999 23.4344 26.4344 24.7999 24.75 24.7999H7.24995C5.56548 24.7999 4.19995 23.4344 4.19995 21.75V11.75C4.19995 10.0655 5.56548 8.69995 7.24995 8.69995H10.963C11.227 8.69995 11.4777 8.58402 11.6486 8.38287L12.3302 7.58088ZM14.235 8.29995C13.971 8.29995 13.7203 8.41588 13.5494 8.61703L12.8678 9.41902C12.3928 9.97787 11.6964 10.3 10.963 10.3H7.24995C6.44914 10.3 5.79995 10.9491 5.79995 11.75V21.75C5.79995 22.5508 6.44914 23.2 7.24995 23.2H24.75C25.5508 23.2 26.2 22.5508 26.2 21.75V11.75C26.2 10.9491 25.5508 10.3 24.7499 10.3H21.034C20.3006 10.3 19.6041 9.97787 19.1292 9.41902L18.4476 8.61703C18.2766 8.41588 18.026 8.29995 17.762 8.29995H14.235ZM15.9984 13.3C14.0934 13.3 12.549 14.8443 12.549 16.7493C12.549 18.6544 14.0934 20.1987 15.9984 20.1987C17.9034 20.1987 19.4478 18.6544 19.4478 16.7493C19.4478 14.8443 17.9034 13.3 15.9984 13.3ZM10.949 16.7493C10.949 13.9606 13.2097 11.7 15.9984 11.7C18.7871 11.7 21.0478 13.9606 21.0478 16.7493C21.0478 19.538 18.7871 21.7987 15.9984 21.7987C13.2097 21.7987 10.949 19.538 10.949 16.7493ZM22.65 14.2999C23.3404 14.2999 23.9 13.7403 23.9 13.0499C23.9 12.3596 23.3404 11.7999 22.65 11.7999C21.9597 11.7999 21.4 12.3596 21.4 13.0499C21.4 13.7403 21.9597 14.2999 22.65 14.2999Z" fill="#0A0A0A"/>
</svg>
