<svg xmlns="http://www.w3.org/2000/svg" width="25" height="25" fill="none"><g clip-path="url(#A)"><path d="M12.5 1.46c6.323 0 11.45 5.127 11.45 11.45S18.824 24.36 12.5 24.36 1.05 19.234 1.05 12.91 6.176 1.46 12.5 1.46zm0 1.4A10.05 10.05 0 0 0 2.45 12.91 10.05 10.05 0 0 0 12.5 22.96c5.55 0 10.05-4.5 10.05-10.05S18.051 2.86 12.5 2.86zm3.505 5.555a.7.7 0 1 1 .99.99L13.49 12.91l3.505 3.505a.7.7 0 1 1-.99.99L12.5 13.9l-3.505 3.505a.7.7 0 1 1-.99-.99l3.505-3.505-3.505-3.505a.7.7 0 1 1 .99-.99L12.5 11.92l3.505-3.505z" fill="#0a0a0a"/></g><defs><clipPath id="A"><path fill="#fff" transform="translate(.5 .91)" d="M0 0h24v24H0z"/></clipPath></defs></svg>