<svg xmlns="http://www.w3.org/2000/svg" width="33" height="32" fill="none"><g clip-path="url(#A)"><path fill-rule="evenodd" d="M16.5 6.967c-1.6 0-3.033 1.465-3.033 3.45s1.434 3.45 3.033 3.45 3.033-1.465 3.033-3.45-1.434-3.45-3.033-3.45zm-4.633 3.45c0-2.709 1.999-5.05 4.633-5.05s4.633 2.341 4.633 5.05-1.999 5.05-4.633 5.05-4.633-2.341-4.633-5.05zm-1.451 10.783c-1.26 1.139-1.898 2.514-2.206 3.441l-.002.019.002.002c.009.011.041.039.107.039h16.368c.066 0 .098-.027.107-.039.003-.007.002-.012-.001-.021-.308-.927-.946-2.302-2.206-3.441-1.243-1.124-3.145-2.066-6.084-2.066s-4.841.942-6.084 2.066zm-1.073-1.187c1.55-1.4 3.838-2.479 7.157-2.479s5.607 1.078 7.157 2.479c1.533 1.385 2.291 3.037 2.652 4.123.391 1.177-.562 2.164-1.624 2.164H8.316c-1.063 0-2.016-.988-1.625-2.164.361-1.086 1.119-2.738 2.652-4.123zM24.467 12.5c0-1.22.852-2.033 1.7-2.033s1.7.813 1.7 2.033-.852 2.033-1.7 2.033-1.7-.813-1.7-2.033zm1.7-3.633c-1.914 0-3.3 1.724-3.3 3.633s1.386 3.633 3.3 3.633 3.3-1.724 3.3-3.633-1.386-3.633-3.3-3.633zM27.984 24.8h2.766c.833 0 1.617-.702 1.475-1.661-.117-.796-.431-2.099-1.298-3.218-.897-1.158-2.34-2.055-4.549-2.055-.884 0-1.639.157-2.282.422.498.393.948.817 1.354 1.26.281-.053.589-.082.928-.082 1.71 0 2.687.664 3.284 1.435.575.742.837 1.638.952 2.299h-2.899c.152.551.229 1.134.268 1.6zM5.286 23.2H2.381c.11-.665.361-1.569.911-2.314.568-.769 1.486-1.419 3.086-1.419a5.41 5.41 0 0 1 1.144.114 11.46 11.46 0 0 1 1.333-1.253c-.691-.29-1.511-.462-2.477-.462-2.132 0-3.518.911-4.373 2.069C1.18 21.054.882 22.352.771 23.144c-.134.955.645 1.656 1.479 1.656h2.768a8.97 8.97 0 0 1 .268-1.6zm1.548-12.733c-.848 0-1.7.813-1.7 2.033s.852 2.033 1.7 2.033 1.7-.813 1.7-2.033-.852-2.033-1.7-2.033zm-3.3 2.033c0-1.91 1.386-3.633 3.3-3.633s3.3 1.724 3.3 3.633-1.386 3.633-3.3 3.633-3.3-1.724-3.3-3.633z" fill="#767779"/></g><defs><clipPath id="A"><path fill="#fff" transform="translate(.5)" d="M0 0h32v32H0z"/></clipPath></defs></svg>