<svg xmlns="http://www.w3.org/2000/svg" width="33" height="32" fill="none"><g clip-path="url(#A)"><path fill-rule="evenodd" d="M5.127 26.215l-.003.005h0a.77.77 0 0 0 .627 1.216h.001.001.002.005.012l.034-.001.109-.006.37-.042c.31-.047.741-.138 1.257-.316 1.028-.354 2.382-1.049 3.78-2.405l1.153.044c6.441 0 11.994-4.131 11.994-9.589s-5.553-9.589-11.994-9.589S.48 9.663.48 15.122c0 3.093 1.816 5.786 4.526 7.509.329.209.671.404 1.026.585.127.064.189.146.2.363.013.265-.072.633-.243 1.059-.165.411-.381.808-.561 1.109-.089.149-.167.27-.222.353l-.063.094-.006.008-.01.014zm15.653-1.907a14.06 14.06 0 0 1-.628-.014c3.817-1.877 6.432-5.211 6.432-9.162 0-3.741-2.344-6.928-5.833-8.85h.029c6.03 0 11.257 3.869 11.257 9.013 0 2.914-1.711 5.446-4.253 7.062-.287.182-.905.561-1.253.739-.073.037-.104.063-.108.208-.005.201.07.501.23.866.153.349.353.688.52.946a8.04 8.04 0 0 0 .205.302l.058.08.014.019.003.003h0c.182.237.213.558.081.826s-.406.438-.705.438c-.804 0-1.688-.417-2.433-.862-.78-.466-1.555-1.056-2.177-1.565-.048-.039-.111-.062-.177-.061l-1.261.012z" fill="#0a0a0a"/></g><defs><clipPath id="A"><path fill="#fff" transform="translate(.25)" d="M0 0h32v32H0z"/></clipPath></defs></svg>