<svg xmlns="http://www.w3.org/2000/svg" width="32" height="33" fill="none"><path fill-rule="evenodd" d="M11.7 8.8a4.3 4.3 0 1 1 8.6 0v7.5a4.3 4.3 0 1 1-8.6 0V8.8zM16 6.1a2.7 2.7 0 0 0-2.7 2.7v7.5a2.7 2.7 0 1 0 5.4 0V8.8A2.7 2.7 0 0 0 16 6.1zm-7 9.4a.8.8 0 0 1 .8.8 6.2 6.2 0 0 0 1.816 4.384A6.2 6.2 0 0 0 16 22.5a6.2 6.2 0 0 0 4.384-1.816A6.2 6.2 0 0 0 22.2 16.3a.8.8 0 1 1 1.6 0 7.8 7.8 0 0 1-2.285 5.515 7.8 7.8 0 0 1-4.715 2.243V26.5a.8.8 0 1 1-1.6 0v-2.441c-.75-.077-1.486-.263-2.185-.553a7.8 7.8 0 0 1-4.221-4.221A7.8 7.8 0 0 1 8.2 16.3a.8.8 0 0 1 .8-.8z" fill="#0a0a0a"/></svg>