<svg xmlns="http://www.w3.org/2000/svg" width="32" height="32" fill="none"><path d="M20.768 26.156c-2.922 0-6.501-1.825-9.793-5.117-3.312-3.312-5.117-6.88-5.117-9.813 0-1.774.482-2.953 1.651-3.999l.256-.226c.687-.615 1.364-.913 2.01-.902.738.01 1.425.431 2.061 1.343l2.071 2.984c.636.913.707 1.999-.154 2.861l-.779.79c-.236.236-.246.431-.113.667.41.646 1.179 1.528 1.979 2.317.759.759 1.877 1.733 2.43 2.082.226.143.431.133.666-.103l.79-.79c.861-.851 1.938-.779 2.861-.144l2.984 2.071c.913.636 1.343 1.323 1.343 2.061 0 .646-.287 1.323-.902 2.01-.072.082-.154.174-.236.256-1.036 1.169-2.215 1.651-4.009 1.651zm.01-1.579c1.138-.02 2.112-.41 2.81-1.21l.164-.195c.267-.308.41-.636.41-.933a.86.86 0 0 0-.42-.769l-2.984-1.989c-.328-.205-.677-.226-.995.092l-.902.902c-.708.707-1.569.656-2.256.143-.8-.595-2.041-1.702-2.82-2.492-.79-.779-1.805-1.928-2.389-2.717-.513-.687-.564-1.548.144-2.256l.902-.902a.72.72 0 0 0 .082-.995l-1.989-2.984c-.195-.308-.461-.42-.759-.42s-.625.144-.933.41c-.072.051-.123.103-.195.164-.8.697-1.2 1.671-1.22 2.799-.051 2.615 2.051 6.081 4.727 8.747 2.656 2.645 6.009 4.655 8.624 4.604z" fill="#0a0a0a"/></svg>