<svg xmlns="http://www.w3.org/2000/svg" width="16" height="17" fill="none"><g clip-path="url(#A)"><path fill-rule="evenodd" d="M13.661 7.919h-1.028l-2.363 2.363v2.482a1.03 1.03 0 0 1-.301.727l-.244.244a.77.77 0 0 1-1.091 0l-2.181-2.181-.759.759c-.936.935-2.076 1.64-3.331 2.059.418-1.255 1.123-2.396 2.059-3.331l.759-.759-2.181-2.181a.77.77 0 0 1 0-1.091l.244-.244a1.03 1.03 0 0 1 .727-.301h2.482l2.363-2.363V3.074a1.03 1.03 0 0 1 .301-.727l.244-.244a.77.77 0 0 1 1.091 0l4.181 4.181a.77.77 0 0 1 0 1.091l-.244.244a1.03 1.03 0 0 1-.727.301z" fill="#767779"/></g><defs><clipPath id="A"><path fill="#fff" transform="translate(0 .5)" d="M0 0h16v16H0z"/></clipPath></defs></svg>