<svg xmlns="http://www.w3.org/2000/svg" width="32" height="32" fill="none"><path d="M16 27.764c.303 0 .593-.025.908-.05l.681 1.298c.126.277.416.429.756.378.315-.05.529-.29.58-.618l.202-1.437c.58-.151 1.147-.378 1.714-.618l1.059.958c.227.227.542.265.857.101.265-.164.378-.454.315-.782l-.29-1.412a11.97 11.97 0 0 0 1.399-1.16l1.311.555a.68.68 0 0 0 .845-.227c.214-.227.239-.555.063-.832l-.769-1.223a11.31 11.31 0 0 0 .895-1.576l1.45.063c.328.025.605-.164.706-.466a.71.71 0 0 0-.252-.819l-1.134-.895c.151-.567.277-1.172.328-1.79l1.361-.441c.315-.113.517-.353.517-.681s-.202-.567-.517-.681l-1.361-.441c-.05-.618-.177-1.21-.328-1.79l1.134-.895a.71.71 0 0 0 .252-.807c-.101-.303-.378-.492-.706-.466l-1.45.05c-.265-.555-.555-1.071-.895-1.576l.769-1.223c.176-.265.151-.592-.063-.819-.239-.277-.529-.353-.844-.227l-1.311.542a13.37 13.37 0 0 0-1.399-1.16l.29-1.399c.063-.34-.05-.63-.315-.782-.315-.164-.618-.139-.857.101l-1.059.945c-.567-.252-1.134-.454-1.714-.618l-.202-1.424c-.05-.328-.265-.555-.58-.618-.34-.038-.63.101-.756.366l-.681 1.298L16 4.432l-.92.038-.668-1.298c-.139-.265-.429-.403-.769-.366-.315.063-.529.29-.58.618l-.202 1.424c-.58.164-1.147.366-1.702.618l-1.059-.945c-.252-.239-.555-.265-.857-.101-.277.151-.391.441-.328.782L9.219 6.6a11.2 11.2 0 0 0-1.399 1.16l-1.324-.542c-.315-.126-.605-.05-.845.227-.202.227-.227.555-.063.807l.769 1.235a13.75 13.75 0 0 0-.895 1.576l-1.45-.05c-.315-.025-.592.164-.706.466a.69.69 0 0 0 .252.807l1.134.895c-.151.58-.277 1.172-.315 1.79l-1.374.441c-.315.101-.504.34-.504.681s.189.58.504.681l1.374.441c.038.618.164 1.223.315 1.79l-1.134.895c-.252.202-.34.504-.252.819.113.302.391.492.706.466l1.45-.063c.265.555.555 1.084.895 1.576l-.769 1.223c-.176.277-.151.605.063.832a.68.68 0 0 0 .845.227l1.324-.555a10.2 10.2 0 0 0 1.399 1.16l-.303 1.412c-.063.328.05.618.328.782a.7.7 0 0 0 .857-.101l1.046-.958c.567.239 1.134.466 1.714.618l.202 1.437c.05.328.265.567.592.618a.7.7 0 0 0 .756-.378l.668-1.298.92.05zm3.038-12.492c-.567-1.513-1.702-2.344-3.076-2.344-.214 0-.441.025-.819.113L11.79 7.306c1.261-.618 2.685-.958 4.21-.958 5.143 0 9.177 3.895 9.58 8.924h-6.542zm-12.656.832c0-3.277 1.538-6.164 3.945-7.929l3.378 5.773c-.63.681-.933 1.412-.933 2.193 0 .756.277 1.45.933 2.156l-3.454 5.66c-2.37-1.765-3.87-4.613-3.87-7.853zm8.143.025c0-.807.693-1.437 1.45-1.437.807 0 1.475.63 1.475 1.437 0 .794-.668 1.45-1.475 1.45-.756 0-1.45-.655-1.45-1.45zM16 25.848c-1.563 0-3.013-.353-4.298-.996l3.441-5.622c.365.088.605.113.819.113 1.387 0 2.521-.857 3.076-2.395h6.542c-.403 5.004-4.437 8.899-9.58 8.899z" fill="#767779"/></svg>