<svg xmlns="http://www.w3.org/2000/svg" width="32" height="32" fill="none"><path fill-rule="evenodd" d="M10.263 7.166c1.746-1.134 3.788-1.725 5.869-1.699s4.108.668 5.825 1.845a.8.8 0 1 0 .905-1.32c-1.977-1.356-4.312-2.096-6.709-2.126s-4.75.651-6.761 1.957a.8.8 0 0 0 .871 1.342zm15.984 2.336a.8.8 0 1 0-1.351.857c1.105 1.744 1.674 3.773 1.636 5.837s-.683 4.071-1.853 5.772a.8.8 0 1 0 1.318.907c1.348-1.959 2.09-4.271 2.134-6.649s-.611-4.716-1.884-6.724zM7.046 9.007a.8.8 0 0 1 .217 1.11c-1.096 1.627-1.715 3.529-1.789 5.489s.402 3.903 1.374 5.608a.8.8 0 0 1 .082.586l-1.029 4.204 4.618-.798a.8.8 0 0 1 .514.083c1.659.887 3.525 1.314 5.405 1.236s3.704-.658 5.284-1.68a.8.8 0 0 1 .869 1.343c-1.82 1.177-3.921 1.845-6.087 1.935-2.072.086-4.13-.361-5.978-1.295l-4.552.787a1.47 1.47 0 0 1-1.674-1.794l1.003-4.098c-1.013-1.894-1.506-4.026-1.426-6.176.084-2.258.798-4.448 2.06-6.323a.8.8 0 0 1 1.11-.217zM9.8 16a6.2 6.2 0 0 1 12.4 0 6.2 6.2 0 0 1-12.4 0zM16 8.2a7.8 7.8 0 1 0 0 15.6 7.8 7.8 0 0 0 0-15.6z" fill="#767779"/></svg>