<svg xmlns="http://www.w3.org/2000/svg" width="24" height="24" fill="none"><path fill-rule="evenodd" d="M11.616 2.9h2.32l1.082.02a6.6 6.6 0 0 1 6.062 6.062c.02.259.02.559.02 1.082v.073l-.03 1.616a9.6 9.6 0 0 1-8.817 8.817c-.376.03-.815.03-1.616.03h-.385c-.698 0-1.098 0-1.442-.036a6.6 6.6 0 0 1-5.874-5.874c-.036-.344-.036-.744-.036-1.442v-1.632c0-1.966 0-3.094.284-4.031a6.6 6.6 0 0 1 4.4-4.4C8.522 2.9 9.649 2.9 11.616 2.9zm.134 1.2c-2.137 0-3.072.007-3.817.233a5.4 5.4 0 0 0-3.6 3.6c-.226.745-.233 1.68-.233 3.818v1.45l.03 1.364a5.4 5.4 0 0 0 4.806 4.806c.274.029.606.03 1.364.03h.3l1.559-.026c.136-.011.241-.127.24-.267v-.101l.057-2.282c.057-.704.177-1.286.445-1.812a4.6 4.6 0 0 1 2.01-2.01c.527-.268 1.108-.387 1.812-.445.824-.067 1.652-.064 2.474-.059.245.001.335 0 .412-.036a.43.43 0 0 0 .173-.156c.044-.073.054-.154.076-.378l.015-.168c.026-.323.026-.712.026-1.559l-.017-1.024a5.4 5.4 0 0 0-4.96-4.96A14.71 14.71 0 0 0 13.9 4.1h-2.15zm7.225 9.498c-.722-.003-1.44-.004-2.154.055-.63.052-1.036.15-1.365.318a3.4 3.4 0 0 0-1.486 1.486c-.168.329-.267.735-.318 1.365-.04.486-.049 1.075-.052 1.831l.005.231s.014.08.025.098c.025.04.072.075.119.087.021.005.048.006.097-.004a2.44 2.44 0 0 0 .21-.061 8.41 8.41 0 0 0 5.261-4.926 2.58 2.58 0 0 0 .08-.217.21.21 0 0 0 .01-.101c-.01-.048-.044-.098-.085-.125a.22.22 0 0 0-.102-.028c-.058-.006-.134-.006-.245-.007z" fill="#0a0a0a"/></svg>