<svg xmlns="http://www.w3.org/2000/svg" width="32" height="32" fill="none"><path fill-rule="evenodd" d="M6.5 7.7A3.3 3.3 0 0 0 3.2 11v10a3.3 3.3 0 0 0 3.3 3.3H19a3.3 3.3 0 0 0 3.3-3.3v-1.974l3.518 3.063c1.165 1.014 2.982.187 2.982-1.358v-9.463c0-1.544-1.817-2.372-2.982-1.358L22.3 12.974V11A3.3 3.3 0 0 0 19 7.7H6.5zm15.8 7.395v1.81l4.569 3.978a.2.2 0 0 0 .331-.151v-9.463a.2.2 0 0 0-.331-.151L22.3 15.095zM4.8 11a1.7 1.7 0 0 1 1.7-1.7H19a1.7 1.7 0 0 1 1.7 1.7v10a1.7 1.7 0 0 1-1.7 1.7H6.5A1.7 1.7 0 0 1 4.8 21V11z" fill="#0a0a0a"/></svg>